<svg width="50" height="50" viewBox="0 0 50 50" fill="none" xmlns="http://www.w3.org/2000/svg">
<path fill-rule="evenodd" clip-rule="evenodd" d="M23.7209 2.52218C24.4732 1.93705 25.5267 1.93705 26.279 2.52218L45.029 17.1055C45.5365 17.5002 45.8333 18.1071 45.8333 18.75V41.6667C45.8333 43.3243 45.1748 44.914 44.0027 46.0861C42.8306 47.2582 41.2409 47.9167 39.5833 47.9167H10.4166C8.75902 47.9167 7.16931 47.2582 5.99721 46.0861C4.82511 44.914 4.16663 43.3243 4.16663 41.6667V18.75C4.16663 18.1071 4.46344 17.5002 4.97092 17.1055L23.7209 2.52218ZM8.33329 19.7689V41.6667C8.33329 42.2192 8.55279 42.7491 8.94349 43.1398C9.33419 43.5305 9.86409 43.75 10.4166 43.75H39.5833C40.1358 43.75 40.6657 43.5305 41.0564 43.1398C41.4471 42.7491 41.6666 42.2192 41.6666 41.6667V19.7689L25 6.80596L8.33329 19.7689Z" fill="#B4BFC0"/>
<path fill-rule="evenodd" clip-rule="evenodd" d="M16.6666 25C16.6666 23.8494 17.5994 22.9167 18.75 22.9167H31.25C32.4006 22.9167 33.3333 23.8494 33.3333 25V45.8333C33.3333 46.9839 32.4006 47.9167 31.25 47.9167C30.0994 47.9167 29.1666 46.9839 29.1666 45.8333V27.0833H20.8333V45.8333C20.8333 46.9839 19.9006 47.9167 18.75 47.9167C17.5994 47.9167 16.6666 46.9839 16.6666 45.8333V25Z" fill="#B4BFC0"/>
</svg>
